<?xml version="1.0" standalone="no"?>
<!DOCTYPE svg PUBLIC "-//W3C//DTD SVG 20010904//EN"
 "http://www.w3.org/TR/2001/REC-SVG-20010904/DTD/svg10.dtd">
<svg version="1.0" xmlns="http://www.w3.org/2000/svg"
 width="700.000000pt" height="700.000000pt" viewBox="0 0 700.000000 700.000000"
 preserveAspectRatio="xMidYMid meet">
<metadata>
Created by potrace 1.14, written by Peter Selinger 2001-2017
</metadata>
<g transform="translate(0.000000,700.000000) scale(0.100000,-0.100000)"
fill="#000000" stroke="none">
<path d="M2284 6493 c-18 -2 -40 -13 -50 -24 -14 -16 -31 -19 -95 -19 -68 0
-80 -3 -89 -20 -7 -14 -21 -20 -45 -20 -22 0 -43 -8 -61 -25 -15 -14 -37 -25
-50 -25 -13 0 -28 -9 -34 -20 -6 -10 -25 -26 -43 -35 -43 -21 -130 -103 -151
-143 -9 -17 -21 -32 -26 -32 -5 0 -12 -11 -16 -25 -3 -13 -15 -27 -25 -30 -10
-4 -19 -12 -19 -20 0 -7 -11 -27 -25 -43 -14 -17 -25 -37 -25 -45 0 -8 -11
-22 -25 -31 -14 -9 -25 -21 -25 -26 0 -5 -11 -20 -25 -34 -14 -14 -25 -33 -25
-43 0 -10 -9 -24 -20 -31 -11 -7 -20 -17 -20 -22 0 -5 -20 -31 -45 -57 -25
-25 -45 -55 -45 -64 0 -10 -12 -32 -27 -48 -52 -55 -73 -83 -73 -95 0 -12 -16
-34 -67 -91 -34 -38 -73 -100 -73 -117 0 -9 -8 -19 -17 -22 -17 -6 -36 -30
-74 -96 -8 -16 -23 -35 -32 -45 -9 -9 -17 -23 -17 -31 0 -8 -6 -14 -14 -14
-13 0 -36 -30 -76 -99 -8 -14 -23 -32 -32 -39 -10 -7 -18 -19 -18 -27 0 -8 -9
-19 -19 -25 -11 -5 -22 -23 -26 -39 -3 -16 -15 -37 -26 -47 -10 -9 -19 -21
-19 -26 0 -4 -19 -27 -41 -50 -23 -24 -48 -58 -56 -75 -7 -18 -18 -33 -23 -33
-6 0 -15 -12 -21 -27 -5 -15 -19 -33 -29 -40 -11 -8 -20 -19 -20 -25 0 -5 -11
-23 -25 -40 -14 -16 -25 -35 -25 -43 0 -7 -7 -16 -15 -19 -9 -3 -22 -21 -30
-39 -8 -19 -21 -39 -29 -47 -9 -7 -16 -20 -16 -30 0 -10 -9 -24 -20 -31 -14
-10 -22 -30 -27 -64 -3 -27 -15 -62 -26 -77 -19 -25 -20 -43 -20 -248 0 -206
1 -223 20 -248 14 -18 22 -49 25 -92 4 -51 9 -66 26 -78 17 -11 22 -24 22 -56
0 -29 8 -53 25 -76 14 -19 25 -46 25 -62 0 -17 7 -31 20 -38 13 -7 20 -21 20
-40 0 -20 9 -38 25 -52 15 -13 25 -32 25 -49 0 -16 8 -34 18 -41 18 -13 36
-40 67 -105 8 -18 24 -37 35 -43 11 -6 20 -18 20 -26 0 -19 60 -114 72 -114 4
0 14 -15 21 -32 8 -18 21 -39 30 -47 10 -7 17 -19 17 -27 0 -7 8 -19 18 -26
11 -7 24 -23 31 -35 6 -13 18 -23 25 -23 8 0 17 -11 20 -25 4 -14 11 -25 16
-25 5 0 17 -14 26 -32 16 -31 42 -61 146 -168 27 -27 48 -54 48 -59 0 -5 9
-12 19 -16 11 -3 23 -15 26 -26 4 -10 13 -19 21 -19 8 0 19 -11 23 -24 5 -13
19 -26 30 -29 12 -3 21 -12 21 -20 0 -9 9 -18 19 -22 11 -3 23 -15 26 -25 3
-10 15 -22 26 -25 10 -4 19 -13 19 -21 0 -8 11 -19 25 -24 14 -5 25 -16 25
-25 0 -8 4 -15 10 -15 5 0 32 -21 60 -47 27 -27 66 -61 86 -78 19 -16 47 -40
61 -52 14 -13 32 -23 40 -23 7 0 13 -7 13 -16 0 -9 9 -18 20 -21 10 -3 26 -16
35 -29 8 -13 20 -24 25 -24 5 0 20 -10 33 -23 14 -12 41 -33 62 -47 21 -14 48
-35 60 -48 12 -12 27 -22 33 -22 6 0 16 -9 22 -20 6 -11 17 -20 24 -20 7 0 31
-14 52 -30 22 -17 48 -37 59 -46 11 -8 37 -28 59 -44 21 -17 47 -30 57 -30 10
0 21 -9 24 -20 3 -11 13 -20 22 -20 9 0 26 -11 39 -25 13 -14 32 -25 43 -25
11 0 25 -9 31 -20 6 -11 17 -20 25 -20 7 0 27 -11 43 -25 17 -14 38 -25 47
-25 10 0 28 -11 41 -25 13 -14 34 -25 49 -25 14 0 25 -4 25 -9 0 -13 103 -81
122 -81 8 0 29 -11 48 -25 19 -14 41 -25 50 -25 9 0 25 -9 34 -19 10 -11 32
-23 50 -27 17 -4 37 -15 44 -25 7 -11 25 -19 41 -19 15 0 42 -11 61 -25 19
-14 44 -25 56 -25 12 0 27 -7 34 -15 7 -8 31 -20 54 -27 22 -6 52 -20 65 -30
13 -10 37 -18 53 -18 18 0 43 -11 60 -25 20 -17 42 -25 66 -25 22 0 44 -8 57
-20 14 -13 42 -23 76 -26 31 -4 59 -13 66 -22 8 -9 38 -19 74 -23 35 -4 68
-14 80 -25 14 -12 43 -19 100 -23 51 -4 83 -11 88 -20 11 -17 79 -30 164 -31
47 0 76 -5 94 -17 24 -16 55 -18 264 -18 205 0 239 2 255 16 12 11 45 18 91
21 53 4 78 11 98 27 16 12 42 21 61 21 20 0 42 8 52 18 11 11 33 24 50 30 30
10 48 23 96 70 13 12 28 22 33 22 14 0 113 112 113 127 0 7 6 13 14 13 8 0 18
10 22 23 4 12 17 32 30 44 13 12 24 30 24 39 0 9 10 27 23 40 59 61 67 70 67
80 0 6 11 21 25 34 14 13 25 31 25 41 0 10 9 21 20 24 11 3 20 12 20 20 0 7 9
24 20 37 31 35 68 90 79 115 6 13 15 23 21 23 6 0 18 15 26 33 17 38 52 87 77
105 9 7 17 18 17 24 0 5 11 23 25 40 14 16 25 36 25 43 0 8 9 19 20 25 11 6
20 16 20 24 0 7 11 22 25 34 14 12 25 28 25 35 0 8 11 24 25 37 14 13 25 32
25 42 0 10 7 18 16 18 8 0 20 13 25 30 6 16 15 30 20 30 5 0 18 18 29 40 11
22 25 40 30 40 5 0 12 10 16 23 4 12 15 28 25 35 11 7 19 19 19 26 0 7 11 23
25 36 14 13 25 31 25 41 0 10 9 21 20 24 11 3 20 12 20 20 0 7 9 24 20 37 31
35 68 90 79 115 6 13 15 23 21 23 6 0 18 15 26 32 17 39 52 88 77 106 9 7 17
18 17 24 0 5 11 23 25 40 14 16 25 37 25 46 0 10 8 22 19 29 10 6 22 24 25 39
4 15 16 39 27 52 10 14 19 40 19 59 0 18 9 46 19 61 25 35 34 152 25 313 -6
95 -11 124 -26 141 -13 15 -18 37 -18 77 0 42 -6 66 -25 96 -14 23 -25 56 -25
76 0 21 -9 47 -20 62 -11 14 -23 40 -26 59 -4 18 -15 42 -24 53 -10 11 -21 35
-25 53 -4 18 -15 37 -26 42 -12 7 -19 21 -19 39 0 16 -11 40 -25 55 -14 15
-25 32 -25 39 0 7 -9 18 -20 25 -11 7 -20 23 -20 37 0 15 -10 31 -25 41 -14 9
-25 24 -25 34 0 10 -11 32 -25 48 -14 17 -25 33 -25 37 0 5 -9 17 -20 29 -47
48 -70 80 -70 97 0 10 -8 24 -18 31 -11 7 -24 23 -31 36 -6 12 -18 22 -26 22
-8 0 -15 6 -15 14 0 7 -10 24 -22 38 -13 13 -36 41 -53 62 -55 71 -69 87 -142
163 -40 41 -73 79 -73 84 0 5 -5 9 -10 9 -13 0 -80 66 -80 79 0 5 -9 12 -19
16 -11 3 -23 14 -26 24 -3 11 -15 21 -25 24 -11 3 -20 12 -20 21 0 9 -4 16
-10 16 -5 0 -45 35 -88 78 -104 102 -162 152 -192 165 -14 7 -31 20 -38 29 -7
10 -19 18 -27 18 -7 0 -16 9 -20 19 -3 11 -15 23 -25 26 -10 3 -22 14 -25 25
-3 10 -17 21 -30 24 -14 4 -25 11 -25 16 0 5 -14 17 -31 25 -16 9 -39 24 -49
33 -11 9 -32 27 -47 40 -15 13 -41 34 -56 48 -15 13 -34 24 -41 24 -7 0 -25
10 -39 23 -15 12 -39 32 -54 45 -15 12 -38 25 -52 29 -14 3 -32 15 -39 25 -7
10 -18 18 -24 18 -6 0 -21 11 -34 25 -13 14 -32 25 -43 25 -11 0 -25 9 -31 20
-6 11 -17 20 -24 20 -7 0 -25 11 -40 25 -15 14 -38 25 -50 25 -14 0 -30 10
-40 25 -9 14 -25 25 -35 25 -10 0 -26 9 -36 20 -10 11 -26 20 -35 20 -9 0 -26
11 -38 25 -14 16 -32 25 -52 25 -19 0 -33 7 -40 20 -6 11 -26 22 -45 26 -20 3
-40 15 -46 25 -6 13 -21 19 -43 19 -25 0 -38 7 -50 25 -12 18 -25 25 -49 25
-21 0 -36 7 -44 20 -7 10 -30 22 -50 26 -21 4 -44 15 -51 26 -7 10 -25 18 -40
18 -15 0 -44 11 -64 25 -22 15 -51 25 -72 25 -24 0 -39 6 -49 20 -9 13 -30 22
-63 26 -27 4 -58 14 -69 24 -11 10 -40 20 -64 23 -24 3 -47 10 -50 15 -12 19
-51 32 -95 32 -34 0 -50 6 -66 22 -17 19 -34 23 -98 27 -56 2 -84 9 -101 22
-19 16 -41 19 -119 19 -81 0 -100 3 -131 23 -34 21 -46 22 -256 23 -121 1
-234 0 -251 -3z m327 -274 c13 -18 27 -21 164 -26 126 -5 152 -9 165 -24 11
-14 34 -19 96 -21 65 -3 86 -8 109 -26 18 -14 42 -22 67 -22 24 0 50 -8 67
-21 15 -11 48 -23 72 -26 24 -3 56 -14 71 -24 14 -11 42 -19 61 -19 23 0 43
-8 61 -25 17 -16 39 -25 60 -25 19 0 46 -10 66 -25 19 -14 47 -25 66 -25 23 0
33 -5 37 -20 4 -15 14 -20 39 -20 24 0 41 -7 56 -25 14 -16 32 -25 52 -25 19
0 33 -7 40 -20 7 -12 25 -22 49 -26 27 -4 41 -12 44 -25 4 -14 14 -19 40 -19
26 0 39 -6 51 -25 9 -14 24 -25 34 -25 10 0 33 -11 52 -25 19 -14 39 -25 45
-25 7 0 20 -9 30 -20 10 -11 26 -20 37 -20 10 0 28 -11 40 -25 12 -14 29 -25
38 -25 10 0 29 -11 44 -25 15 -14 34 -25 42 -25 8 0 17 -6 20 -14 3 -8 20 -20
37 -27 18 -7 38 -21 45 -31 7 -10 19 -18 27 -18 8 0 19 -9 25 -19 5 -11 23
-22 40 -26 17 -4 35 -15 40 -25 5 -10 21 -21 35 -24 14 -4 25 -11 25 -16 0 -9
101 -80 113 -80 3 0 23 -17 45 -37 21 -21 64 -56 96 -78 32 -22 61 -46 63 -52
3 -7 11 -13 19 -13 7 0 21 -11 30 -25 9 -14 20 -25 25 -25 5 0 31 -21 57 -47
78 -78 152 -143 162 -143 13 0 270 -259 270 -271 0 -9 19 -30 137 -155 24 -25
48 -54 53 -65 6 -10 17 -19 24 -19 8 0 17 -11 20 -25 4 -14 11 -25 16 -25 5 0
17 -15 26 -32 17 -34 23 -42 68 -91 14 -15 26 -32 26 -37 0 -5 9 -15 19 -22
11 -8 23 -26 26 -40 4 -14 18 -36 31 -49 13 -12 24 -30 24 -39 0 -9 9 -25 19
-34 11 -10 22 -28 25 -41 3 -13 15 -27 26 -30 15 -5 20 -15 20 -39 0 -22 8
-39 25 -54 16 -14 25 -32 25 -52 0 -18 7 -33 19 -39 11 -6 21 -26 25 -51 3
-22 13 -43 21 -46 8 -3 17 -26 21 -50 3 -24 14 -54 24 -67 10 -13 20 -50 24
-91 4 -45 14 -78 26 -94 18 -22 20 -41 20 -152 0 -112 -2 -129 -19 -144 -11
-10 -22 -38 -26 -66 -4 -27 -13 -51 -21 -54 -7 -3 -20 -20 -27 -38 -8 -18 -34
-50 -58 -71 -24 -21 -53 -47 -64 -56 -11 -10 -32 -21 -46 -24 -14 -4 -36 -16
-49 -27 -15 -13 -37 -20 -65 -20 -28 0 -51 -7 -70 -22 -26 -20 -36 -21 -291
-21 -230 0 -267 3 -282 17 -13 11 -50 19 -120 24 -77 7 -107 14 -123 28 -14
13 -40 19 -87 22 -47 3 -72 10 -84 22 -9 10 -40 21 -70 25 -29 4 -64 16 -77
26 -14 11 -40 19 -64 19 -30 0 -46 6 -63 25 -18 20 -33 25 -68 25 -34 0 -48 5
-55 19 -7 11 -26 20 -52 24 -26 3 -46 13 -56 26 -9 14 -25 21 -48 21 -24 0
-38 6 -45 20 -7 12 -25 22 -50 26 -21 4 -47 15 -56 25 -9 11 -25 19 -35 19
-10 0 -31 11 -47 25 -17 14 -41 25 -56 25 -15 0 -30 8 -36 20 -6 11 -26 22
-45 26 -20 3 -40 14 -45 24 -5 10 -24 22 -42 26 -18 3 -39 15 -46 25 -7 11
-19 19 -27 19 -8 0 -31 11 -51 25 -20 14 -42 25 -48 25 -6 0 -17 9 -23 19 -7
11 -26 22 -43 26 -16 4 -35 15 -40 26 -6 10 -19 19 -30 19 -11 0 -24 9 -30 20
-6 11 -21 22 -35 26 -13 3 -31 14 -41 25 -9 10 -22 19 -29 19 -6 0 -21 11 -33
25 -12 14 -28 25 -36 25 -8 0 -27 11 -42 25 -15 14 -33 25 -40 25 -7 0 -15 9
-19 19 -3 10 -13 22 -23 25 -15 5 -48 27 -110 74 -13 9 -34 27 -47 40 -12 12
-25 22 -29 22 -4 0 -24 16 -44 36 -36 35 -90 76 -138 102 -13 7 -24 20 -24 28
0 8 -8 18 -17 21 -9 4 -68 58 -130 120 -62 62 -115 113 -118 113 -8 0 -65 57
-65 64 0 4 -43 49 -95 101 -52 52 -95 100 -95 105 0 6 -7 10 -15 10 -9 0 -20
11 -25 25 -5 14 -17 28 -25 31 -8 4 -15 11 -15 16 0 6 -22 36 -50 68 -27 32
-50 62 -50 68 0 5 -11 17 -25 26 -14 9 -25 23 -25 31 0 8 -9 19 -19 25 -11 5
-22 23 -26 40 -4 17 -15 35 -26 40 -10 6 -19 17 -19 24 0 7 -9 21 -20 31 -11
10 -22 27 -26 39 -3 11 -13 29 -21 38 -16 18 -43 65 -69 118 -9 19 -22 38 -29
42 -7 4 -16 23 -19 41 -4 19 -15 42 -26 52 -11 10 -20 29 -20 42 0 12 -10 33
-22 45 -14 14 -23 38 -26 70 -4 38 -10 53 -28 65 -21 13 -24 23 -24 78 0 47
-5 68 -20 88 -18 23 -20 40 -20 171 0 128 2 150 19 174 11 15 22 45 26 67 4
21 15 45 26 53 10 7 19 18 19 23 0 13 106 119 119 119 5 0 16 8 23 19 7 10 32
22 55 26 23 3 53 15 67 26 17 13 41 19 78 20 82 1 150 14 160 33 7 13 27 16
112 16 93 0 105 -2 117 -21z m-1033 -769 c0 -19 -3 -44 -7 -54 -7 -18 -9 -16
-24 14 -21 42 -21 64 0 97 l17 26 7 -24 c4 -13 7 -40 7 -59z m47 -237 c4 -21
15 -51 25 -68 9 -16 20 -49 23 -73 3 -24 12 -51 20 -60 8 -9 20 -36 26 -58 6
-23 18 -47 26 -54 8 -7 15 -20 15 -29 0 -10 11 -32 25 -51 14 -19 25 -40 25
-48 0 -16 64 -117 80 -127 6 -3 10 -15 10 -26 0 -11 11 -30 24 -42 13 -12 26
-32 30 -44 4 -11 13 -24 21 -27 8 -3 15 -11 15 -18 0 -13 34 -57 80 -104 11
-12 20 -26 20 -32 0 -7 9 -17 20 -24 11 -7 20 -18 20 -24 0 -12 68 -92 171
-202 32 -34 63 -72 69 -82 6 -11 17 -20 25 -20 7 0 16 -9 20 -19 3 -11 15 -23
26 -26 10 -4 19 -11 19 -16 0 -13 66 -79 79 -79 5 0 13 -9 16 -20 3 -11 10
-20 15 -20 5 0 52 -43 105 -95 53 -52 99 -95 103 -95 5 0 30 -22 56 -50 26
-27 53 -50 58 -50 14 0 78 -71 78 -87 0 -35 -65 5 -155 96 -12 12 -26 21 -32
21 -6 0 -15 9 -18 20 -3 11 -11 20 -17 20 -22 0 -548 527 -548 550 0 5 -9 12
-20 15 -11 3 -20 13 -20 21 0 7 -9 19 -20 26 -11 7 -20 18 -20 25 0 6 -8 18
-18 25 -9 7 -25 26 -35 41 -10 16 -26 37 -35 47 -9 10 -26 31 -37 46 -11 15
-29 36 -41 48 -12 12 -24 31 -28 42 -4 12 -15 29 -26 39 -11 10 -20 23 -20 29
0 12 -50 90 -73 116 -7 8 -19 29 -26 47 -7 18 -19 38 -27 44 -8 6 -14 19 -14
28 0 10 -11 32 -25 51 -14 19 -25 41 -25 51 0 9 -9 28 -20 41 -10 14 -22 45
-26 69 -3 24 -14 55 -23 69 -10 14 -21 43 -24 65 -4 22 -10 55 -13 74 -5 22
-2 36 7 41 19 12 26 5 34 -37z m3398 -2820 c18 -9 45 -19 60 -22 15 -3 28 -9
28 -14 -1 -4 -3 -7 -6 -7 -3 0 -36 0 -73 0 -64 0 -70 2 -80 25 -7 14 -12 28
-12 30 0 11 54 4 83 -12z m537 -98 c24 -22 252 -21 270 0 8 10 30 15 60 15 48
0 48 0 37 -25 l-12 -25 -224 0 c-184 0 -227 3 -241 15 -9 8 -47 17 -88 21 -44
4 -69 11 -65 17 10 16 244 0 263 -18z"/>
<path d="M3165 5313 c-9 -9 -39 -20 -67 -24 -31 -5 -59 -17 -73 -31 -13 -13
-30 -29 -39 -36 -9 -7 -16 -24 -16 -37 0 -14 -8 -29 -20 -35 -18 -10 -20 -21
-20 -125 0 -99 2 -116 18 -127 13 -9 21 -31 25 -67 4 -35 13 -61 27 -73 11
-10 20 -30 20 -43 0 -13 11 -36 25 -51 14 -15 25 -33 25 -40 0 -7 9 -18 20
-24 11 -6 20 -20 20 -31 0 -11 11 -30 25 -43 14 -13 25 -28 25 -33 0 -6 11
-18 25 -27 14 -9 25 -22 25 -29 0 -7 9 -18 20 -25 11 -7 20 -19 20 -27 0 -17
274 -295 291 -295 7 0 32 -20 56 -45 24 -25 50 -45 57 -45 8 0 17 -8 20 -17 6
-17 32 -37 99 -75 17 -10 35 -24 39 -33 5 -8 18 -15 28 -15 11 0 24 -9 30 -20
6 -11 21 -22 35 -26 13 -3 31 -14 41 -25 9 -10 22 -19 29 -19 7 0 24 -11 39
-25 15 -14 36 -25 48 -25 11 0 31 -11 44 -25 13 -14 34 -25 48 -25 14 0 30 -8
35 -19 6 -11 26 -21 48 -24 21 -4 46 -16 55 -27 10 -11 30 -20 45 -20 15 0 37
-10 50 -21 14 -14 40 -24 73 -27 35 -3 54 -10 60 -23 7 -13 28 -19 77 -24 40
-4 76 -14 87 -24 15 -13 51 -16 233 -19 194 -3 217 -1 241 15 15 10 39 23 55
30 15 7 27 19 27 27 0 8 9 17 20 21 12 4 24 21 30 43 6 20 17 46 25 56 10 14
15 44 15 96 0 63 -4 80 -19 94 -12 11 -20 35 -23 73 -4 44 -10 60 -26 71 -14
9 -22 25 -22 43 0 15 -9 36 -19 46 -10 10 -26 34 -35 53 -31 66 -47 90 -67
100 -10 6 -19 17 -19 25 0 8 -9 20 -20 27 -11 7 -20 18 -20 24 0 22 -59 89
-207 237 -171 171 -244 238 -276 252 -12 5 -28 18 -35 27 -7 10 -20 18 -28 18
-8 0 -17 6 -20 14 -6 16 -88 70 -121 80 -13 4 -23 14 -23 21 0 8 -18 19 -40
25 -22 6 -40 15 -40 21 0 5 -12 15 -27 22 -16 6 -34 20 -41 29 -7 10 -26 18
-41 18 -20 0 -34 8 -45 25 -12 18 -25 25 -48 25 -20 0 -39 9 -54 25 -14 15
-34 25 -51 25 -17 0 -33 8 -40 19 -8 12 -29 21 -64 25 -34 5 -58 14 -66 25 -8
13 -29 20 -68 23 -39 3 -59 10 -69 24 -11 15 -30 19 -92 22 -58 3 -85 10 -103
23 -20 16 -42 19 -152 19 -106 0 -130 -3 -144 -17z"/>
</g>
</svg>
